<?xml version="1.0" encoding="UTF-8" standalone="no"?>
<!-- Created with Inkscape (http://www.inkscape.org/) -->

<svg
   width="39.452232mm"
   height="42.042267mm"
   viewBox="0 0 39.452232 42.042267"
   version="1.1"
   id="svg1"
   inkscape:version="1.3.2 (091e20e, 2023-11-25, custom)"
   sodipodi:docname="dibujo-2.svg"
   xml:space="preserve"
   inkscape:export-filename="dibujo-4.svg"
   inkscape:export-xdpi="96"
   inkscape:export-ydpi="96"
   xmlns:inkscape="http://www.inkscape.org/namespaces/inkscape"
   xmlns:sodipodi="http://sodipodi.sourceforge.net/DTD/sodipodi-0.dtd"
   xmlns="http://www.w3.org/2000/svg"
   xmlns:svg="http://www.w3.org/2000/svg"><sodipodi:namedview
     id="namedview1"
     pagecolor="#ffffff"
     bordercolor="#000000"
     borderopacity="0.25"
     inkscape:showpageshadow="2"
     inkscape:pageopacity="0.0"
     inkscape:pagecheckerboard="0"
     inkscape:deskcolor="#d1d1d1"
     inkscape:document-units="mm"
     inkscape:zoom="0.69397447"
     inkscape:cx="360.2438"
     inkscape:cy="612.41446"
     inkscape:window-width="1366"
     inkscape:window-height="705"
     inkscape:window-x="-8"
     inkscape:window-y="-8"
     inkscape:window-maximized="1"
     inkscape:current-layer="layer1"
     showgrid="false"
     showguides="true"><sodipodi:guide
       position="19.674062,271.684"
       orientation="1,0"
       id="guide1"
       inkscape:locked="false" /></sodipodi:namedview><defs
     id="defs1" /><g
     inkscape:label="Capa 1"
     inkscape:groupmode="layer"
     id="layer1"
     transform="translate(-85.076578,-116.41667)"><path
       style="opacity:0.83959;fill:#161513;fill-opacity:1;stroke-width:0.264583"
       d="m 87.910397,158.13098 2.885895,-1.44295 2.557954,-3.19133 1.902066,-4.14701 0.590296,-4.07407 -0.918239,-1.44294 1.311772,-1.24619 0.891071,-3.83596 0.104009,-3.73581 -0.601549,-2.72562 -2.426777,-1.50854 -0.45912,-0.49191 9.969465,0.0656 -2.57991,1.60692 0.15313,3.01707 3.27566,8.26416 -0.84889,1.7053 -4.394431,-10.10063 -0.393528,4.85355 -0.196768,2.16442 1.049416,1.24618 0.983831,0.65589 -1.442951,0.45912 -1.508535,2.03324 -0.918239,3.60737 -1.383951,4.42819 -2.420183,4.16391 z"
       id="path1"
       sodipodi:nodetypes="cccccccccccccccccccccccccccc" /><path
       style="opacity:0.83959;fill:#161513;fill-opacity:1;stroke-width:0.264583"
       d="m 99.257211,150.71947 2.820309,-3.34501 2.4886,-4.13208 1.77465,-4.39443 1.96766,-5.24708 -0.32794,-1.57413 -2.42678,-1.44295 h 9.83828 l -0.85265,0.52471 -2.62354,2.09883 0.13117,3.34502 0.26236,2.8859 0.65588,2.49236 1.96766,1.7053 -1.04941,0.72147 -0.26236,1.04942 0.26236,2.2956 1.18059,4.13208 2.42677,3.86972 3.23858,2.42678 h -4.92733 l -1.29859,-3.30603 -2.31891,-5.47526 -0.64929,-3.52209 -3.06095,-2.22614 1.66961,-1.29859 0.0703,-3.54065 -0.25576,-3.60158 -3.43198,8.06979 -0.92756,1.43772 0.92756,1.57686 3.75662,4.77694 -3.52473,1.62323 -1.43772,2.17977 -0.7545,1.66961 -1.23976,-3.20008 -2.36528,-1.62324 c -0.82389,-0.37413 -2.883,-1.02275 -1.703869,-0.95177 z"
       id="path2"
       sodipodi:nodetypes="cccccccccccccccccccccccccccccccccccccc" /><path
       style="fill:#151513;fill-opacity:0.839216;stroke-width:0.264583"
       d="m 113.74591,135.64472 2.99139,-1.25221 3.1769,-1.22902 h 2.24934 l 1.80874,0.34784 0.55654,0.81162 -0.2087,1.08988 -0.60292,1.46091 -0.92756,2.22615 -0.53335,0.27827 0.0232,0.55654 -0.0928,0.71886 -0.60292,0.27826 -0.0464,1.50729 -0.76524,0.858 -0.11595,0.51015 -0.2087,0.34784 0.0464,0.51016 -0.99713,1.0667 -1.02032,0.76524 -0.74205,0.78842 -0.88118,0.0232 0.44059,0.76524 0.88118,1.08989 0.51016,0.92756 0.20871,0.87853 -0.0464,1.34762 -0.0928,1.11307 -0.2087,1.11307 -0.97394,0.95075 -0.44059,-0.2087 0.0464,-0.51015 0.71886,-0.69568 -1.85513,-1.55366 -0.0927,-0.62611 0.34783,-0.0464 0.83481,0.76524 0.95075,0.71886 -0.0232,-2.68993 -1.99426,-0.39421 -1.15945,-0.64929 0.11595,-0.0928 0.8348,-0.25508 1.2754,0.57973 0.74205,0.23189 -1.80875,-2.04064 -0.92756,-0.51016 0.95075,-0.51016 0.76524,-0.27827 -0.0464,-0.34783 -0.95075,-0.0464 0.0232,-0.60291 2.3189,0.24576 -0.46378,-0.47765 0.30146,-0.53335 1.20583,-0.0232 -5.21754,-2.15658 5.65813,0.858 -0.64929,-0.4406 0.16232,-0.51016 1.36816,-0.0928 -0.0464,-0.51016 -6.70164,-1.36815 0.2087,-0.67249 2.08702,-0.85799 0.0464,-0.57973 -0.34784,-0.32464 -1.2754,-0.30146 -0.76523,-0.53335 z"
       id="path3" /><path
       style="opacity:0.83959;fill:#161513;fill-opacity:1;stroke-width:0.264583"
       d="m 107.70909,146.43052 1.85512,1.66961 2.3421,1.94788 0.71886,1.83194 1.0435,2.55079 0.53335,1.20583 0.54242,-0.19818 0.40833,1.03957 -1.57685,0.20212 -2.31891,0.25508 -2.75949,-0.0696 -1.97107,-2.01745 0.27827,-0.44059 1.25221,1.11308 -0.39422,-2.68993 0.57973,0.30145 0.67248,1.64643 0.90043,1.08988 0.53729,0.11595 -0.53729,-3.80301 0.83875,1.15946 0.67248,1.85512 0.23189,0.69567 1.64642,-0.11594 -1.71598,-4.49868 -1.15946,-1.50729 -1.32177,-1.29858 z"
       id="path4" /><path
       style="opacity:0.83959;fill:#141413;fill-opacity:0.839216;stroke-width:0.264583"
       d="m 107.10617,144.35738 3.30952,0.65597 1.11959,0.81425 0.32464,1.76104 -1.18263,-1.15812 -1.41453,-1.04351 -1.69281,-0.44059 z"
       id="path5" /><path
       style="opacity:0.83959;fill:#151513;fill-opacity:0.839216;stroke-width:0.264583"
       d="m 110.19229,139.8676 -1.78753,0.48739 0.0696,0.60292 1.00871,0.16232 0.68668,-0.11589 z"
       id="path6" /><path
       style="opacity:0.83959;fill:#151513;fill-opacity:0.839216;stroke-width:0.264583"
       d="m 109.30913,142.95216 -1.94788,-0.0232 1.48553,0.38279 z"
       id="path7" /><path
       style="opacity:0.83959;fill:#151513;fill-opacity:0.839216;stroke-width:0.264583"
       d="m 106.75991,137.73025 -2.19379,1.98675 v 0.77691 l 0.74832,0.89546 -0.18705,-1.08207 0.5411,-0.93464 0.67228,-0.52471 z"
       id="path8" /><path
       style="opacity:0.83959;fill:#161513;fill-opacity:1;stroke-width:0.264583"
       d="m 94.832002,155.54944 -0.08199,0.47552 0.5739,0.47551 1.000225,-0.0328 1.393757,0.14757 2.590746,-0.0656 0.85265,-0.5739 1.42655,-1.62331 0.45621,-0.59656 -0.28953,-0.74735 -1.36367,1.4095 -0.86905,0.72147 1.05008,-2.94259 -0.506,-0.34726 -0.77364,1.51896 -0.573897,1.36096 -0.442721,0.5903 -0.573902,0.5739 -0.3723,-0.0492 -0.201599,-0.80346 0.393533,-1.67251 0.295148,-1.22978 0.29286,-1.26454 -0.472115,-0.19725 -0.19788,1.31421 -0.541104,1.49214 -0.442725,1.65611 -0.08198,0.44272 -0.983829,0.18037 -0.344339,-0.0164 -0.379019,-0.31155 z"
       id="path9" /><path
       style="fill:#151513;fill-opacity:0.839216;stroke-width:0.264583"
       d="m 92.399373,154.68801 -1.324327,-1.8697 -0.557504,-1.54133 0.114782,-1.80369 0.426323,-1.55773 0.819857,-1.18059 0.852651,-0.90184 0.0164,-0.26236 -0.885446,-0.0164 -1.049417,-0.49191 -1.033018,-1.42656 -0.98383,-1.62331 -0.885446,-2.3069 -1.743932,-3.71025 -0.97394,-2.29571 -0.115945,-1.0667 1.368155,-0.78843 2.434849,-0.27826 3.316034,0.95075 3.91895,1.76236 1.120653,0.73526 -0.02733,0.98148 -1.510731,0.13839 -1.043506,0.13913 -0.99713,0.51016 v 0.39421 l 1.391343,0.95076 1.96764,1.11976 -0.152604,0.65694 -1.02661,-0.54769 -0.67248,-0.0927 -1.275398,0.4174 -1.414534,0.30146 -1.947878,0.16232 -1.507289,0.48697 v 0.41741 l 1.391343,0.18551 0.115946,0.11594 v 0.25508 l -0.881184,0.30146 1.113075,0.0696 4.081272,-1.04351 1.846506,-0.26621 -0.144031,0.62004 -2.421337,0.57373 -2.342092,0.6493 -1.275397,0.67248 1.553665,-0.13914 0.417401,-0.0232 -0.811614,0.92756 1.252206,-0.0232 2.013892,-0.0934 -2.106647,0.97461 0.324647,0.30146 0.857993,0.0928 1.842246,0.0741 -1.529194,0.76069 -1.704392,1.19424 -0.695672,0.92756 0.985533,-0.10435 1.71599,-0.76524 0.964858,-0.19859 -0.114207,0.78821 -1.131448,0.25059 -0.878655,0.37722 -0.950751,0.56813 -0.684078,0.27561 -0.255079,0.16498 -0.185513,0.99713 0.06957,0.91597 0.846402,-0.46481 1.217425,-0.82219 1.804503,-1.15945 -0.06558,0.36837 -3.420126,2.90128 0.452189,0.96235 0.71982,0.71512 z"
       id="path10" /><path
       style="opacity:0.83959;fill:#151513;fill-opacity:0.839216;stroke-width:0.264583"
       d="m 100.19584,140.49391 1.78556,0.62632 0.28293,0.48795 -1.04817,-0.21881 -1.20583,-0.26914 z"
       id="path11" /><path
       style="opacity:0.83959;fill:#161513;fill-opacity:1;stroke-width:0.264583"
       d="m 100.42773,142.65071 2.27998,-0.0234 0.15487,0.30167 z"
       id="path12" /><path
       style="opacity:0.83959;fill:#161513;fill-opacity:1;stroke-width:0.264583"
       d="m 103.17395,143.69894 -3.441891,1.4098 0.533351,0.2319 1.37974,-0.37103 1.21743,-0.61223 0.16232,0.16397 -1.37975,1.45166 -2.469629,3.00831 -1.066696,0.69567 0.579725,0.27827 0.780369,-0.74205 0.33576,0.85693 0.862681,-1.02318 0.0155,-0.85407 1.41453,-1.76237 1.61984,-1.48284 -0.49157,-1.12998"
       id="path13"
       sodipodi:nodetypes="ccccccccccccccccc" /><path
       style="opacity:0.83959;fill:#121212;fill-opacity:0.705882;stroke-width:0.264583"
       d="m 99.552359,125.30392 3.148251,-0.81986 4.19767,0.0328 2.91707,0.5903 -0.55588,1.14779 -2.68913,0.55751 -3.86973,-0.0656 -3.049861,-0.32795 -0.42633,-0.68867 z"
       id="path14" /><path
       style="opacity:0.83959;fill:#141413;fill-opacity:0.839216;stroke-width:0.264583"
       d="m 98.90131,123.07391 3.60254,-0.91824 3.34501,-0.19677 4.5912,1.11501 -0.62471,2.03325 c 0,0 -2.91707,-0.5903 -2.91707,-0.5903 l -4.19767,-0.0328 -3.312221,1.03302 z"
       id="path15" /><path
       style="opacity:0.83959;fill:#111111;fill-opacity:0.592157;stroke-width:0.264583"
       d="m 110.44006,123.07391 1.34456,-1.41015 -0.59029,-0.55751 -0.75427,0.85265 -1.37736,-0.26235 -0.42633,-0.95103 0.0328,-0.32795 -0.5903,-0.16397 -0.39353,0.39353 -0.45912,0.19677 -0.62309,-0.0328 -0.88545,-0.65589 -0.13117,-1.01662 v -0.45912 l -1.06663,-0.0984 -0.21958,1.24618 -0.41909,0.78706 -0.55751,0.32794 -0.98382,-0.19676 -0.19677,-0.62309 -0.75427,0.16397 -0.19676,0.68868 -0.81986,0.36073 -1.47091,-0.29514 -0.36557,-0.45913 -0.819856,0.5903 0.491913,0.78706 0.693513,1.11501 1.80127,-0.45912 1.80127,-0.45912 3.34501,-0.19677 z"
       id="path16" /><path
       style="opacity:0.83959;fill:#111111;fill-opacity:0.592157;stroke-width:0.264583"
       d="m 112.70286,119.1058 0.5903,0.39354 0.29515,0.72147 -0.36074,0.91824 -1.44295,0.52471 -0.59029,-0.55751 -0.29515,-1.08221 0.5903,-0.91824 z"
       id="path17" /><path
       style="opacity:0.83959;fill:#101010;fill-opacity:0.498039;stroke-width:0.264583"
       d="m 108.66917,120.41757 0.5575,-0.39353 0.0328,-0.75427 -0.13118,-0.6887 h -0.68868 l -0.5903,0.52473 -0.19676,0.36074 0.42632,0.78706 z"
       id="path18" /><path
       style="opacity:0.83959;fill:#111111;fill-opacity:0.592157;stroke-width:0.264583"
       d="m 104.99621,116.41667 -1.115,0.49192 -0.16397,0.75427 0.80264,0.91821 1.06663,0.0984 0.59029,-0.5247 v -0.85265 l -0.42632,-0.52471 z"
       id="path19" /><path
       style="opacity:0.83959;fill:#111111;fill-opacity:0.592157;stroke-width:0.264583"
       d="m 100.76575,118.58107 h 0.72147 l 0.55751,0.52473 0.0984,1.0166 -0.75427,0.16397 -0.72147,-0.16394 -0.29515,-0.62311 0.0328,-0.81985 z"
       id="path20" /><path
       style="opacity:0.83959;fill:#111111;fill-opacity:0.592157;stroke-width:0.264583"
       d="m 96.535289,118.67947 h 1.180595 l 0.688679,0.42633 0.22956,0.39352 -0.09839,1.08219 -0.819854,0.5903 -0.688679,0.13121 -0.951034,-1.01665 0.06559,-1.18057 z"
       id="path21" /><path
       style="opacity:0.83959;fill:#666666;fill-opacity:0.839216;stroke-width:0.264583"
       d="m 104.39561,147.4339 -1.76366,2.75472 2.02948,1.68484 1.96033,-1.6127 z"
       id="path40" /></g></svg>
