<?xml version="1.0" encoding="UTF-8" standalone="no"?>
<!-- Created with Inkscape (http://www.inkscape.org/) -->

<svg
   version="1.1"
   id="svg1"
   width="374"
   height="386"
   viewBox="0 0 374 386"
   sodipodi:docname="Logodewhatsap.svg"
   inkscape:version="1.3.2 (091e20e, 2023-11-25, custom)"
   xmlns:inkscape="http://www.inkscape.org/namespaces/inkscape"
   xmlns:sodipodi="http://sodipodi.sourceforge.net/DTD/sodipodi-0.dtd"
   xmlns="http://www.w3.org/2000/svg"
   xmlns:svg="http://www.w3.org/2000/svg">
  <defs
     id="defs1" />
  <sodipodi:namedview
     id="namedview1"
     pagecolor="#ffffff"
     bordercolor="#000000"
     borderopacity="0.25"
     inkscape:showpageshadow="2"
     inkscape:pageopacity="0.0"
     inkscape:pagecheckerboard="0"
     inkscape:deskcolor="#d1d1d1"
     showgrid="false"
     inkscape:zoom="1.2979275"
     inkscape:cx="148.6986"
     inkscape:cy="246.16168"
     inkscape:window-width="1366"
     inkscape:window-height="697"
     inkscape:window-x="-8"
     inkscape:window-y="-8"
     inkscape:window-maximized="1"
     inkscape:current-layer="g1" />
  <g
     inkscape:groupmode="layer"
     inkscape:label="Image"
     id="g1">
    <path
       style="fill:#ffffff;fill-opacity:0.356364;stroke-width:1.00157"
       d="m 162.56687,95.53693 9.2455,46.998 -17.72056,24.65469 26.19561,33.12974 20.8024,20.03194 13.0978,-0.77046 10.78643,-13.0978 50.07984,12.32734 6.16367,20.8024 -10.01596,14.63872 -20.03194,12.32735 -34.67066,-0.77046 -35.44112,-16.9501 -36.98203,-32.35928 -20.8024,-31.58883 -11.55688,-35.44111 -2.31139,-29.27745 21.57286,-23.88423 z"
       id="path2"
       sodipodi:nodetypes="ccccccccccccccccccc" />
    <path
       style="fill:#00ff00;fill-opacity:0.356364;stroke-width:1.00157"
       d="m 98.618768,69.341318 36.982042,-23.88423 38.52295,-10.78643 46.998,1.54092 47.76847,16.9501 43.91617,40.83433 21.57285,46.227542 7.70459,49.30939 -20.80239,63.17764 -31.58883,37.7525 -48.53892,26.96606 -38.52295,8.47505 -30.04791,-1.54091 -30.0479,-8.47505 -41.6048,-22.34332 L 87.061878,279.67665 61.636726,239.61278 46.998003,191.84431 59.325349,128.66667 74.73453,97.848308 Z"
       id="path4" />
    <path
       style="fill:#ffffff;fill-opacity:0.467273;stroke-width:1.00157"
       d="M 63.948103,287.38124 40.063872,247.31737 26.966068,191.84431 31.588823,140.99401 52.391218,93.225549 87.061876,53.932136 131.74851,23.884232 l 59.32535,-7.704591 57.78443,9.245509 50.07985,29.277444 40.06387,43.916171 20.03193,63.177645 -6.16367,67.8004 -18.49102,41.60479 -39.29341,41.60479 -49.30939,23.88423 -51.62075,11.55689 -56.24352,-7.70459 -73.193617,13.0978 17.720559,-48.53892 z"
       id="path5"
       sodipodi:nodetypes="ccccccccccccccccccccc" />
  </g>
</svg>
