<?xml version="1.0" encoding="UTF-8" standalone="no"?>
<!-- Created with Inkscape (http://www.inkscape.org/) -->

<svg
   version="1.1"
   id="svg1"
   width="363"
   height="392"
   viewBox="0 0 363 392"
   sodipodi:docname="Logodefacebook.svg"
   inkscape:version="1.3.2 (091e20e, 2023-11-25, custom)"
   xmlns:inkscape="http://www.inkscape.org/namespaces/inkscape"
   xmlns:sodipodi="http://sodipodi.sourceforge.net/DTD/sodipodi-0.dtd"
   xmlns="http://www.w3.org/2000/svg"
   xmlns:svg="http://www.w3.org/2000/svg">
  <sodipodi:namedview
     id="namedview1"
     pagecolor="#ffffff"
     bordercolor="#000000"
     borderopacity="0.25"
     inkscape:showpageshadow="2"
     inkscape:pageopacity="0.0"
     inkscape:pagecheckerboard="0"
     inkscape:deskcolor="#d1d1d1"
     showgrid="false"
     inkscape:zoom="1.8074515"
     inkscape:cx="177.04486"
     inkscape:cy="133.61354"
     inkscape:window-width="1366"
     inkscape:window-height="697"
     inkscape:window-x="-8"
     inkscape:window-y="-8"
     inkscape:window-maximized="1"
     inkscape:current-layer="g1" />
  <defs
     id="defs1" />
  <g
     inkscape:groupmode="layer"
     inkscape:label="Image"
     id="g1">
    <path
       style="fill:#fefefe;fill-opacity:1;stroke-width:1.00157"
       d="m 139.97609,314.25463 1.10653,-95.16162 -28.76979,-1.10653 V 174.8318 l 30.98285,-1.6598 -1.65979,-35.40897 11.61857,-31.53611 18.25775,-17.151225 26.55673,-7.192447 30.42958,1.10653 14.93816,2.766326 0.55327,40.388356 -26.00347,0.55327 -14.93816,4.97938 -3.87285,7.19245 -4.97939,14.93816 0.55327,18.25775 46.47427,1.10653 -6.08592,47.58081 -41.49488,-2.21306 1.65979,99.58773 -53.37043,-3.35891 z"
       id="path1"
       sodipodi:nodetypes="ccccccccccccccccccccccc" />
    <path
       style="fill:#0671ff;fill-opacity:1;stroke-width:1.00157"
       d="m 140.52936,315.36116 0.55326,-96.26815 h -30.42958 l 1.10653,-45.92101 33.19591,-1.65979 -3.87286,-32.08938 10.51204,-29.87632 18.25775,-18.811019 29.32306,-9.405509 44.26121,4.426122 0.55327,42.048156 -30.42959,-1.6598 -14.93816,8.29898 -5.53265,23.23714 2.21306,16.59795 48.13407,-1.10653 -8.29898,48.13407 -42.60142,-2.21306 3.87286,98.48121 9.95877,-1.10653 27.66326,-7.19245 37.62204,-24.34367 16.59795,-16.04469 17.70449,-28.21652 11.0653,-26.00347 4.42612,-24.89693 V 167.08609 L 318.12748,144.95548 313.1481,125.03793 301.52953,99.034468 278.29239,69.711413 256.16178,50.900397 222.4126,34.855707 l -29.32305,-6.639183 -17.70449,-0.553265 -34.30244,4.979387 -23.7904,8.852243 -25.450198,12.725099 -24.343669,21.577342 -21.024077,33.19591 -13.278365,33.19591 -3.872856,32.08938 3.872856,29.87632 13.83163,39.28183 18.257751,25.4502 23.237138,20.47081 26.55673,17.15122 z"
       id="path2"
       sodipodi:nodetypes="cccccccccccccccccccccccccccccccccccccccccccccccc" />
  </g>
</svg>
