<?xml version="1.0" encoding="UTF-8" standalone="no"?>
<!-- Created with Inkscape (http://www.inkscape.org/) -->

<svg
   version="1.1"
   id="svg1"
   width="374"
   height="386"
   viewBox="0 0 374 386"
   sodipodi:docname="Logodewhatsap3.svg"
   inkscape:version="1.3.2 (091e20e, 2023-11-25, custom)"
   xmlns:inkscape="http://www.inkscape.org/namespaces/inkscape"
   xmlns:sodipodi="http://sodipodi.sourceforge.net/DTD/sodipodi-0.dtd"
   xmlns="http://www.w3.org/2000/svg"
   xmlns:svg="http://www.w3.org/2000/svg">
  <defs
     id="defs1" />
  <sodipodi:namedview
     id="namedview1"
     pagecolor="#ffffff"
     bordercolor="#000000"
     borderopacity="0.25"
     inkscape:showpageshadow="2"
     inkscape:pageopacity="0.0"
     inkscape:pagecheckerboard="0"
     inkscape:deskcolor="#d1d1d1"
     showgrid="false"
     inkscape:zoom="1.2979275"
     inkscape:cx="148.6986"
     inkscape:cy="108.2495"
     inkscape:window-width="1366"
     inkscape:window-height="697"
     inkscape:window-x="-8"
     inkscape:window-y="-8"
     inkscape:window-maximized="1"
     inkscape:current-layer="g1"
     showguides="false">
    <sodipodi:guide
       position="177.20559,352.87026"
       orientation="0,-1"
       id="guide9"
       inkscape:locked="false" />
    <sodipodi:guide
       position="177.20559,352.87026"
       orientation="0,-1"
       id="guide10"
       inkscape:locked="false" />
  </sodipodi:namedview>
  <g
     inkscape:groupmode="layer"
     inkscape:label="Image"
     id="g1">
    <path
       style="fill:#ffffff;fill-opacity:1;stroke-width:1.00157"
       d="m 174.89421,162.56687 -13.0978,-43.91617 c -2.5229,-3.89759 8.13591,-20.976901 -14.63873,-4.62276 -6.43198,-0.36023 -13.9196,-10.22122 -18.49101,6.16368 l -16.9501,30.0479 4.62275,34.67066 25.42515,46.22754 40.06387,36.21158 33.9002,16.9501 17.72056,3.8523 18.49102,-2.31138 20.03194,-10.01597 8.47505,-14.63872 -3.8523,-20.8024 c -16.32525,-5.41442 -25.45783,-28.81051 -49.30938,-15.40918 l -13.09781,15.40918 -10.78642,-1.54091 -21.57286,-16.9501 -18.49101,-22.34332 -6.16368,-12.32734 0.77046,-4.62276 z"
       id="path5"
       sodipodi:nodetypes="cccccccccccccccccccccc" />
    <path
       style="fill:#ffffff;fill-opacity:1;stroke-width:1.00157"
       d="m 228.82635,227.28543 -14.63873,12.32734"
       id="path6" />
    <path
       style="fill:#ffffff;fill-opacity:1;stroke-width:1.00157"
       d="m 204.94212,238.07186 6.93413,1.54091 15.40918,-13.86826 46.22754,13.86826 3.8523,3.08184 3.08184,17.72056"
       id="path7" />
    <path
       style="fill:#00ff00;fill-opacity:1;stroke-width:1.00157"
       d="m 111.71657,150.23952 16.9501,-30.81836 14.63872,-8.47505 16.9501,6.16367 14.63872,44.68663 -18.49102,21.57285 12.32735,24.65469 32.35928,31.58882 h 9.24551 l 16.17964,-16.17964 c 25.94953,8.69966 28.99414,8.2977 55.47305,25.42515 l -2.31137,12.32735 -9.24551,15.40918 -18.49102,9.24551 -19.26148,1.54092 -41.60479,-15.40918 -48.53892,-41.60479 -26.19561,-46.22755 -50.079839,-43.91617 c -23.19604,1.36543 -18.004675,22.38368 -15.409182,41.60479 l 0.770459,47.76847 19.261478,47.76846 26.195608,30.0479 c 4.217716,17.65159 15.877116,12.9781 23.884236,19.26148 l 39.29341,16.17964 38.52295,5.39321 52.39122,-10.78642 41.60479,-28.50699 23.88423,-20.8024 20.03194,-46.998 4.62275,-38.52295 -1.54091,-31.58882 -12.32735,-45.45709 -43.91617,-42.375249 -56.24351,-25.42515 -61.63673,-2.311377 -46.998,18.491018 -43.14571,42.375248 -10.015968,24.65469 50.850298,42.37525 z"
       id="path8"
       sodipodi:nodetypes="ccccccccccccccccccccccccccccccccccccccccc" />
    <path
       style="fill:#ffffff;fill-opacity:1;stroke-width:1.00157"
       d="m 114.7984,74.734531 52.39121,-19.261477 59.32536,0.770459 53.16167,26.195609 40.83434,40.834338 16.9501,45.45709 v 45.45708 l -6.93414,34.67066 -18.49101,37.7525 -38.52296,32.35928 -30.0479,17.72056 L 195.6966,346.7066 154.09181,340.54292 101.7006,313.57686 69.341317,271.20161 49.309381,225.74452 50.8503,171.81238 73.193613,117.10979 95.536926,91.684631 78.586827,79.357286 c -12.188105,7.913451 -21.166207,20.64191 -29.277445,34.670664 -12.488401,19.00466 -16.966076,38.00932 -19.261478,57.01398 -6.43699,29.03712 -3.669846,48.87011 0,67.80039 5.23358,24.91151 11.958011,37.49568 29.277446,62.40719 32.380582,30.82475 13.999636,80.3983 6.934131,99.38922 29.499942,-5.47315 26.737471,-55.53634 116.339319,-30.04791 l 64.71856,-6.16367 44.68663,-30.81836 35.44112,-29.27745 26.96607,-56.24351 6.16367,-59.32535 C 355.19134,165.13507 349.64641,141.50766 338.23153,117.88025 330.36897,104.94049 321.50044,93.006707 311.27534,82.429494 301.55511,72.374532 290.60896,63.545479 278.13573,56.243513 262.83481,48.278147 254.18156,35.564453 225.74451,36.982036 l -53.16167,-4.622754 -55.47307,16.17964 C 97.766663,53.91497 94.106248,62.81715 77.045908,82.439122 l 16.9501,6.934132 -0.770459,5.393213 z"
       id="path9"
       sodipodi:nodetypes="ccccccccccccccccccccccccccccccccscccccccc" />
  </g>
</svg>
