<?xml version="1.0" encoding="UTF-8" standalone="no"?>
<!-- Created with Inkscape (http://www.inkscape.org/) -->

<svg
   version="1.1"
   id="svg1"
   width="363"
   height="392"
   viewBox="0 0 363 392"
   sodipodi:docname="logofacebook.svg"
   inkscape:version="1.3.2 (091e20e, 2023-11-25, custom)"
   xmlns:inkscape="http://www.inkscape.org/namespaces/inkscape"
   xmlns:sodipodi="http://sodipodi.sourceforge.net/DTD/sodipodi-0.dtd"
   xmlns="http://www.w3.org/2000/svg"
   xmlns:svg="http://www.w3.org/2000/svg">
  <defs
     id="defs1" />
  <sodipodi:namedview
     id="namedview1"
     pagecolor="#ffffff"
     bordercolor="#000000"
     borderopacity="0.25"
     inkscape:showpageshadow="2"
     inkscape:pageopacity="0.0"
     inkscape:pagecheckerboard="0"
     inkscape:deskcolor="#d1d1d1"
     showgrid="false"
     inkscape:zoom="1.2780612"
     inkscape:cx="176.0479"
     inkscape:cy="211.6487"
     inkscape:window-width="1366"
     inkscape:window-height="697"
     inkscape:window-x="-8"
     inkscape:window-y="-8"
     inkscape:window-maximized="1"
     inkscape:current-layer="g1" />
  <g
     inkscape:groupmode="layer"
     inkscape:label="Image"
     id="g1">
    <path
       style="fill:#0671ff;fill-opacity:1;stroke-width:1.00157"
       d="m 121.27744,371.65669 -0.78244,-95.45709 -29.732525,-0.78243 0.78243,-43.03394 33.644705,-1.56487 -3.91217,-28.9501 9.38922,-34.42714 17.21357,-19.56088 16.43114,-5.47704 32.07984,-3.12974 28.9501,3.91217 -0.78243,39.12176 -32.86228,2.3473 -11.73653,6.25948 -3.12974,14.08383 -2.3473,26.6028 48.51097,-0.78244 -8.60678,49.29342 -40.68663,-1.56487 2.34731,96.23952 28.16766,-5.47705 29.73254,-13.3014 35.99201,-32.07984 20.34332,-30.51497 11.73652,-46.16367 -3.12974,-43.81637 -6.25948,-29.73253 -25.03792,-40.68663 -38.33932,-30.51497 -50.07585,-14.083832 -72.76647,3.129746 -32.862274,15.648696 -25.037921,27.38523 -26.60279,35.20958 -12.5189601,44.59881 0.7824301,33.64471 9.38922,38.33932 19.56088,33.64471 30.51497,28.9501 28.9501,15.6487 z"
       id="path2"
       sodipodi:nodetypes="ccccccccccccccccccccccccccccccccccccccccc" />
  </g>
</svg>
